utf8,<svg xmlns="http://www.w3.org/2000/svg" enable-background="new 0 0 25 25" viewBox="0 0 25 25"><switch><g><path fill="#494b4c" d="M5.63,6C5.62,5.73,5.6,5.47,5.6,5.17c0-1.46,1.08-2.65,2.4-2.65s2.4,1.19,2.4,2.65
			c0,0.29-0.02,0.56-0.03,0.83H5.63z M19.37,6c0.01-0.27,0.03-0.53,0.03-0.83c0-1.46-1.08-2.65-2.4-2.65s-2.4,1.19-2.4,2.65
			c0,0.29,0.02,0.56,0.03,0.83H19.37z M24.95,14.28l-3.36-6.72C21.42,7.21,21.07,7,20.69,7H4.31C3.93,7,3.58,7.21,3.41,7.55
			l-3.36,6.72c-0.08,0.16-0.07,0.34,0.02,0.49C0.17,14.91,0.33,15,0.5,15H2v8h1v-8h1.74c-0.14-0.88-0.24-1.94-0.24-3.18
			c0-2.1,1.57-3.81,3.5-3.81s3.5,1.71,3.5,3.82c0,1.24-0.11,2.29-0.24,3.17h2.49c-0.14-0.88-0.24-1.94-0.24-3.18
			c0-2.1,1.57-3.81,3.5-3.81s3.5,1.71,3.5,3.82c0,1.24-0.11,2.29-0.24,3.17H22v8h1v-8h1.5c0.17,0,0.33-0.09,0.43-0.24
			C25.02,14.62,25.02,14.43,24.95,14.28z M11.5,17H9.79c0.14-0.45,0.39-1.38,0.55-2.67c0-0.03,0.01-0.07,0.01-0.1
			c0.03-0.21,0.05-0.42,0.07-0.65c0.01-0.11,0.02-0.24,0.02-0.36c0.01-0.16,0.02-0.31,0.03-0.48c0.01-0.29,0.02-0.6,0.02-0.92
			c0-0.19-0.02-0.37-0.05-0.54c-0.01-0.07-0.03-0.13-0.05-0.19c-0.03-0.11-0.05-0.21-0.09-0.32c-0.03-0.07-0.06-0.14-0.09-0.21
			c-0.04-0.09-0.08-0.17-0.12-0.26c-0.04-0.07-0.08-0.13-0.12-0.19c-0.05-0.08-0.1-0.15-0.16-0.22c-0.05-0.06-0.1-0.11-0.15-0.16
			C9.6,9.68,9.53,9.61,9.46,9.55C9.41,9.51,9.36,9.47,9.3,9.43C9.22,9.38,9.14,9.33,9.05,9.28C9,9.25,8.94,9.23,8.89,9.2
			C8.79,9.16,8.7,9.13,8.6,9.1C8.54,9.09,8.49,9.07,8.43,9.06C8.39,9.05,8.35,9.04,8.31,9.03C8.21,9.02,8.1,9.01,8,9.01
			S7.79,9.02,7.69,9.03C7.65,9.04,7.61,9.05,7.58,9.06C7.51,9.07,7.45,9.09,7.39,9.1C7.3,9.13,7.21,9.16,7.12,9.2
			C7.06,9.22,7,9.25,6.94,9.28C6.86,9.33,6.78,9.38,6.7,9.43C6.65,9.47,6.59,9.51,6.54,9.55C6.47,9.61,6.4,9.67,6.34,9.73
			C6.29,9.79,6.23,9.84,6.19,9.9c-0.06,0.07-0.11,0.14-0.16,0.21c-0.04,0.06-0.09,0.13-0.13,0.2c-0.05,0.08-0.08,0.16-0.12,0.25
			c-0.03,0.07-0.07,0.14-0.09,0.21c-0.04,0.1-0.06,0.21-0.09,0.31c-0.02,0.06-0.04,0.13-0.05,0.19c-0.03,0.18-0.05,0.36-0.05,0.54
			c0,0.32,0.01,0.63,0.02,0.92c0.01,0.17,0.02,0.32,0.03,0.48c0.01,0.12,0.01,0.24,0.02,0.36c0.02,0.23,0.04,0.44,0.07,0.64
			c0,0.03,0.01,0.07,0.01,0.1c0.16,1.29,0.41,2.22,0.55,2.67H4.5C4.22,17,4,17.22,4,17.5V23h1v-5h6v5h1v-5.5
			C12,17.22,11.78,17,11.5,17z M20.5,17h-1.71c0.14-0.45,0.39-1.38,0.55-2.67c0-0.03,0.01-0.07,0.01-0.1
			c0.03-0.21,0.05-0.42,0.07-0.65c0.01-0.11,0.02-0.24,0.02-0.36c0.01-0.16,0.02-0.31,0.03-0.48c0.01-0.29,0.02-0.6,0.02-0.92
			c0-0.19-0.02-0.37-0.05-0.54c-0.01-0.07-0.03-0.13-0.05-0.19c-0.03-0.11-0.05-0.21-0.09-0.32c-0.03-0.07-0.06-0.14-0.09-0.21
			c-0.04-0.09-0.08-0.17-0.12-0.26c-0.04-0.07-0.08-0.13-0.12-0.19c-0.05-0.08-0.1-0.15-0.16-0.22c-0.05-0.06-0.1-0.11-0.15-0.16
			c-0.07-0.07-0.13-0.13-0.21-0.19c-0.05-0.04-0.1-0.08-0.16-0.12c-0.08-0.06-0.16-0.11-0.25-0.15C18,9.25,17.94,9.23,17.89,9.2
			c-0.09-0.04-0.19-0.07-0.29-0.1c-0.06-0.02-0.12-0.03-0.17-0.04c-0.04-0.01-0.08-0.02-0.12-0.03C17.21,9.02,17.1,9.01,17,9.01
			s-0.21,0.01-0.31,0.02c-0.04,0.01-0.08,0.02-0.11,0.03c-0.06,0.01-0.12,0.03-0.18,0.04c-0.09,0.03-0.19,0.06-0.28,0.1
			C16.06,9.22,16,9.25,15.94,9.28c-0.08,0.04-0.16,0.09-0.24,0.15c-0.06,0.04-0.11,0.08-0.17,0.12c-0.07,0.06-0.13,0.12-0.2,0.18
			c-0.05,0.05-0.11,0.11-0.15,0.16c-0.06,0.07-0.11,0.14-0.16,0.21c-0.04,0.06-0.09,0.13-0.13,0.2c-0.05,0.08-0.08,0.16-0.12,0.25
			c-0.03,0.07-0.07,0.14-0.09,0.21c-0.04,0.1-0.06,0.21-0.09,0.31c-0.02,0.06-0.04,0.13-0.05,0.19c-0.03,0.18-0.05,0.36-0.05,0.54
			c0,0.32,0.01,0.63,0.02,0.92c0.01,0.17,0.02,0.32,0.03,0.48c0.01,0.12,0.01,0.24,0.02,0.36c0.02,0.23,0.04,0.44,0.07,0.64
			c0,0.03,0.01,0.07,0.01,0.1c0.16,1.29,0.41,2.22,0.55,2.67H13.5c-0.28,0-0.5,0.22-0.5,0.5V23h1v-5h6v5h1v-5.5
			C21,17.22,20.78,17,20.5,17z"/></g></switch></svg>